# xmcd
#
# Track frame offsets: 
#        150
#        20011
#        33270
#        47876
#        59164
#        76042
#        100862
#
# Disc length: 1588 seconds
#
# Revision: 0
# Processed by: cddbd v1.5.2PL0 Copyright (c) Steve Scherf et al.
# Submitted via: ExactAudioCopy v1.0b3
#
DISCID=54063207
DTITLE=Michael Rank and Stag - Kin Disc II
DYEAR=2012
DGENRE=Country
TTITLE0=Sea Measures
TTITLE1=Tongue
TTITLE2=Manservant
TTITLE3=Demolitions
TTITLE4=Arrowheads
TTITLE5=The Eye Teeth
TTITLE6=Here Comes The Light
EXTD=
EXTT0=
EXTT1=
EXTT2=
EXTT3=
EXTT4=
EXTT5=
EXTT6=
PLAYORDER=
